<mxfile host="app.diagrams.net" agent="Mozilla/5.0 (Windows NT 10.0; Win64; x64) AppleWebKit/537.36 (KHTML, like Gecko) Chrome/126.0.0.0 Safari/537.36 OPR/112.0.0.0" version="24.7.5">
  <diagram id="prtHgNgQTEPvFCAcTncT" name="Page-1">
    <mxGraphModel dx="-644" dy="570" grid="1" gridSize="10" guides="1" tooltips="1" connect="1" arrows="1" fold="1" page="1" pageScale="1" pageWidth="413" pageHeight="583" math="0" shadow="0">
      <root>
        <mxCell id="0" />
        <mxCell id="1" parent="0" />
        <mxCell id="fQuRERfI6EG6g70LbA9C-367" style="edgeStyle=orthogonalEdgeStyle;rounded=0;orthogonalLoop=1;jettySize=auto;html=1;endArrow=classic;endFill=1;" parent="1" edge="1">
          <mxGeometry relative="1" as="geometry">
            <mxPoint x="1976" y="256.0000000000001" as="sourcePoint" />
            <mxPoint x="1975.9756097560976" y="256.0000000000001" as="targetPoint" />
          </mxGeometry>
        </mxCell>
        <mxCell id="fQuRERfI6EG6g70LbA9C-368" value="" style="rounded=0;whiteSpace=wrap;html=1;fontFamily=Helvetica;fontSize=12;fontColor=#000000;align=center;" parent="1" vertex="1">
          <mxGeometry x="1710" y="76" width="176" height="100" as="geometry" />
        </mxCell>
        <mxCell id="fQuRERfI6EG6g70LbA9C-369" value="" style="rounded=0;whiteSpace=wrap;html=1;fontFamily=Helvetica;fontSize=12;fontColor=#000000;align=center;" parent="1" vertex="1">
          <mxGeometry x="1936" y="76" width="334" height="214" as="geometry" />
        </mxCell>
        <mxCell id="fQuRERfI6EG6g70LbA9C-370" value="&lt;font style=&quot;font-size: 10px;&quot;&gt;&lt;b style=&quot;&quot;&gt;Frontend Mobile App&lt;/b&gt;&lt;/font&gt;&lt;div&gt;&lt;font style=&quot;font-size: 10px;&quot;&gt;&lt;font color=&quot;#26c4f9&quot;&gt;React Native &lt;/font&gt;on &lt;font color=&quot;#26c4f9&quot;&gt;JavaScript&lt;/font&gt;&lt;/font&gt;&lt;/div&gt;&lt;div&gt;&lt;font style=&quot;font-size: 10px;&quot;&gt;Hosted on &lt;font color=&quot;#26c4f9&quot;&gt;Expo SDK&lt;/font&gt;&lt;/font&gt;&lt;/div&gt;" style="text;html=1;align=center;verticalAlign=middle;whiteSpace=wrap;rounded=0;" parent="1" vertex="1">
          <mxGeometry x="1714" y="98.5" width="168" as="geometry" />
        </mxCell>
        <mxCell id="fQuRERfI6EG6g70LbA9C-384" value="" style="rounded=0;whiteSpace=wrap;html=1;fontFamily=Helvetica;fontSize=12;fontColor=#000000;align=center;" parent="1" vertex="1">
          <mxGeometry x="1936" y="356" width="300" height="124" as="geometry" />
        </mxCell>
        <mxCell id="fQuRERfI6EG6g70LbA9C-385" value="&lt;font style=&quot;font-size: 10px;&quot;&gt;&lt;b style=&quot;&quot;&gt;Backend Server&lt;/b&gt;&lt;/font&gt;&lt;div&gt;&lt;font style=&quot;&quot;&gt;&lt;font color=&quot;#26c4f9&quot; style=&quot;font-size: 10px;&quot;&gt;Django REST API&lt;br&gt;&lt;/font&gt;&lt;font style=&quot;font-size: 10px;&quot;&gt;&lt;font color=&quot;#26c4f9&quot;&gt;Docker &lt;/font&gt;Container - Hosted on &lt;font color=&quot;#26c4f9&quot;&gt;Google Cloud Compute Engine&lt;/font&gt;&lt;/font&gt;&lt;/font&gt;&lt;/div&gt;" style="text;html=1;align=center;verticalAlign=middle;whiteSpace=wrap;rounded=0;" parent="1" vertex="1">
          <mxGeometry x="1939" y="76" width="328" height="45" as="geometry" />
        </mxCell>
        <mxCell id="fQuRERfI6EG6g70LbA9C-399" value="" style="endArrow=none;dashed=1;html=1;rounded=0;entryDx=0;entryDy=0;entryPerimeter=0;jumpSize=4;dashPattern=1 4;strokeWidth=1;targetPerimeterSpacing=0;endSize=6;jumpStyle=none;spacingBottom=0;" parent="1" edge="1">
          <mxGeometry width="50" height="50" relative="1" as="geometry">
            <mxPoint x="2001.9999999999998" y="147.91" as="sourcePoint" />
            <mxPoint x="2039.9999999999998" y="147.91" as="targetPoint" />
          </mxGeometry>
        </mxCell>
        <mxCell id="fQuRERfI6EG6g70LbA9C-408" value="" style="endArrow=none;dashed=1;html=1;rounded=0;entryDx=0;entryDy=0;entryPerimeter=0;jumpSize=4;dashPattern=1 4;strokeWidth=1;targetPerimeterSpacing=0;endSize=6;jumpStyle=none;spacingBottom=0;" parent="1" edge="1">
          <mxGeometry width="50" height="50" relative="1" as="geometry">
            <mxPoint x="2071.49" y="147.91" as="sourcePoint" />
            <mxPoint x="2107.99" y="147.91" as="targetPoint" />
          </mxGeometry>
        </mxCell>
        <mxCell id="fQuRERfI6EG6g70LbA9C-424" value="" style="endArrow=none;dashed=1;html=1;rounded=0;dashPattern=1 4;" parent="1" edge="1">
          <mxGeometry width="50" height="50" relative="1" as="geometry">
            <mxPoint x="2059.78" y="190" as="sourcePoint" />
            <mxPoint x="2059.78" y="162" as="targetPoint" />
          </mxGeometry>
        </mxCell>
        <mxCell id="fQuRERfI6EG6g70LbA9C-432" value="&lt;font style=&quot;font-size: 10px;&quot;&gt;&lt;b style=&quot;&quot;&gt;+ &lt;/b&gt;CRUD operations for smart contracts, accounts, authentication tokens, push notification tokens, posts, comment and likes.&lt;/font&gt;&lt;div&gt;&lt;font style=&quot;font-size: 10px;&quot;&gt;&lt;b&gt;+ &lt;/b&gt;Communication with the AI model for contract conversion.&lt;/font&gt;&lt;/div&gt;&lt;div&gt;&lt;font style=&quot;font-size: 10px;&quot;&gt;&lt;b style=&quot;&quot;&gt;+ &lt;/b&gt;Send &amp;amp; receive data to / from OpenAI.&lt;/font&gt;&lt;/div&gt;" style="text;html=1;align=left;verticalAlign=middle;whiteSpace=wrap;rounded=0;" parent="1" vertex="1">
          <mxGeometry x="1946" y="221" width="300.32" height="69" as="geometry" />
        </mxCell>
        <mxCell id="fQuRERfI6EG6g70LbA9C-433" value="" style="rounded=0;whiteSpace=wrap;html=1;fontFamily=Helvetica;fontSize=12;fontColor=#000000;align=center;" parent="1" vertex="1">
          <mxGeometry x="1710" y="226" width="176" height="100" as="geometry" />
        </mxCell>
        <mxCell id="fQuRERfI6EG6g70LbA9C-435" value="&lt;div&gt;&lt;b style=&quot;&quot;&gt;&lt;font style=&quot;font-size: 10px;&quot;&gt;AI Model&lt;/font&gt;&lt;/b&gt;&lt;/div&gt;&lt;div&gt;&lt;font color=&quot;#26c4f9&quot; style=&quot;font-size: 10px;&quot;&gt;OpenAI GPT-3.5 Turbo&lt;/font&gt;&lt;/div&gt;" style="text;html=1;align=center;verticalAlign=middle;whiteSpace=wrap;rounded=0;" parent="1" vertex="1">
          <mxGeometry x="1715" y="226" width="166" height="34" as="geometry" />
        </mxCell>
        <mxCell id="fQuRERfI6EG6g70LbA9C-436" value="" style="endArrow=classic;startArrow=classic;html=1;rounded=0;exitX=1.007;exitY=0.47;exitDx=0;exitDy=0;exitPerimeter=0;verticalAlign=middle;fillColor=#e1d5e7;strokeColor=#9673a6;" parent="1" source="fQuRERfI6EG6g70LbA9C-368" edge="1">
          <mxGeometry width="50" height="50" relative="1" as="geometry">
            <mxPoint x="1916" y="216" as="sourcePoint" />
            <mxPoint x="1935" y="123" as="targetPoint" />
          </mxGeometry>
        </mxCell>
        <mxCell id="fQuRERfI6EG6g70LbA9C-443" value="&lt;b style=&quot;&quot;&gt;&lt;font style=&quot;font-size: 10px;&quot;&gt;Database System&lt;/font&gt;&lt;/b&gt;&lt;div&gt;&lt;font color=&quot;#26c4f9&quot; style=&quot;font-size: 10px;&quot;&gt;PostgreSQL&lt;/font&gt;&lt;/div&gt;&lt;div&gt;&lt;font style=&quot;font-size: 10px;&quot;&gt;Hosted on &lt;font color=&quot;#26c4f9&quot;&gt;Google Cloud&lt;/font&gt;&lt;/font&gt;&lt;/div&gt;" style="text;html=1;align=center;verticalAlign=middle;whiteSpace=wrap;rounded=0;" parent="1" vertex="1">
          <mxGeometry x="1958.5" y="356" width="255" height="50" as="geometry" />
        </mxCell>
        <mxCell id="fQuRERfI6EG6g70LbA9C-459" value="" style="rounded=0;whiteSpace=wrap;html=1;fontFamily=Helvetica;fontSize=12;fontColor=#000000;align=center;" parent="1" vertex="1">
          <mxGeometry x="1746" y="376" width="140" height="140" as="geometry" />
        </mxCell>
        <mxCell id="fQuRERfI6EG6g70LbA9C-460" value="&lt;b style=&quot;&quot;&gt;&lt;font style=&quot;font-size: 10px;&quot;&gt;Deployment &amp;amp; Hosting&lt;/font&gt;&lt;/b&gt;" style="text;html=1;align=center;verticalAlign=middle;whiteSpace=wrap;rounded=0;" parent="1" vertex="1">
          <mxGeometry x="1746" y="366" width="140" height="50" as="geometry" />
        </mxCell>
        <mxCell id="fQuRERfI6EG6g70LbA9C-476" value="" style="endArrow=classic;html=1;rounded=0;exitX=0.25;exitY=1;exitDx=0;exitDy=0;fillColor=#dae8fc;strokeColor=#6c8ebf;" parent="1" source="fQuRERfI6EG6g70LbA9C-432" edge="1">
          <mxGeometry width="50" height="50" relative="1" as="geometry">
            <mxPoint x="2036" y="326" as="sourcePoint" />
            <mxPoint x="1816" y="376" as="targetPoint" />
            <Array as="points">
              <mxPoint x="2021" y="316" />
              <mxPoint x="1916" y="316" />
              <mxPoint x="1916" y="356" />
              <mxPoint x="1816" y="356" />
            </Array>
          </mxGeometry>
        </mxCell>
        <mxCell id="fQuRERfI6EG6g70LbA9C-477" value="" style="endArrow=classic;html=1;rounded=0;fillColor=#dae8fc;strokeColor=#6c8ebf;" parent="1" edge="1">
          <mxGeometry width="50" height="50" relative="1" as="geometry">
            <mxPoint x="1795" y="176" as="sourcePoint" />
            <mxPoint x="1816" y="376" as="targetPoint" />
            <Array as="points">
              <mxPoint x="1795" y="200" />
              <mxPoint x="1700" y="200" />
              <mxPoint x="1700" y="356" />
              <mxPoint x="1816" y="356" />
            </Array>
          </mxGeometry>
        </mxCell>
        <mxCell id="fQuRERfI6EG6g70LbA9C-478" value="" style="endArrow=classic;startArrow=classic;html=1;rounded=0;fillColor=#e1d5e7;strokeColor=#9673a6;" parent="1" edge="1">
          <mxGeometry width="50" height="50" relative="1" as="geometry">
            <mxPoint x="2085.95" y="291" as="sourcePoint" />
            <mxPoint x="2085.95" y="355" as="targetPoint" />
          </mxGeometry>
        </mxCell>
        <mxCell id="fQuRERfI6EG6g70LbA9C-479" style="edgeStyle=orthogonalEdgeStyle;rounded=0;orthogonalLoop=1;jettySize=auto;html=1;exitX=0.5;exitY=1;exitDx=0;exitDy=0;" parent="1" source="fQuRERfI6EG6g70LbA9C-459" target="fQuRERfI6EG6g70LbA9C-459" edge="1">
          <mxGeometry relative="1" as="geometry" />
        </mxCell>
        <mxCell id="fQuRERfI6EG6g70LbA9C-480" value="" style="rounded=0;whiteSpace=wrap;html=1;fontFamily=Helvetica;fontSize=12;fontColor=#000000;align=center;" parent="1" vertex="1">
          <mxGeometry x="2290" y="292" width="140" height="155" as="geometry" />
        </mxCell>
        <mxCell id="fQuRERfI6EG6g70LbA9C-481" value="&lt;font style=&quot;font-size: 10px;&quot;&gt;&lt;b style=&quot;&quot;&gt;CI / CD Pipeline&lt;/b&gt;&lt;/font&gt;&lt;div&gt;&lt;font style=&quot;font-size: 10px;&quot;&gt;&lt;font color=&quot;#26c4f9&quot;&gt;GitHub Actions&lt;/font&gt;&lt;/font&gt;&lt;/div&gt;" style="text;html=1;align=center;verticalAlign=middle;whiteSpace=wrap;rounded=0;" parent="1" vertex="1">
          <mxGeometry x="2296" y="297" width="130" height="30" as="geometry" />
        </mxCell>
        <mxCell id="fQuRERfI6EG6g70LbA9C-492" value="" style="endArrow=classic;startArrow=classic;html=1;rounded=0;exitX=1.008;exitY=0.863;exitDx=0;exitDy=0;exitPerimeter=0;fillColor=#dae8fc;strokeColor=#6c8ebf;entryX=0.507;entryY=1.018;entryDx=0;entryDy=0;entryPerimeter=0;" parent="1" edge="1" target="fQuRERfI6EG6g70LbA9C-480">
          <mxGeometry width="50" height="50" relative="1" as="geometry">
            <mxPoint x="1887" y="498.0899999999998" as="sourcePoint" />
            <mxPoint x="2356" y="450" as="targetPoint" />
            <Array as="points">
              <mxPoint x="2361" y="497" />
            </Array>
          </mxGeometry>
        </mxCell>
        <mxCell id="fQuRERfI6EG6g70LbA9C-493" value="" style="endArrow=none;dashed=1;html=1;rounded=0;jumpSize=4;dashPattern=1 4;strokeWidth=1;targetPerimeterSpacing=0;endSize=6;jumpStyle=none;spacingBottom=0;exitX=0.495;exitY=0.942;exitDx=0;exitDy=0;exitPerimeter=0;" parent="1" edge="1">
          <mxGeometry width="50" height="50" relative="1" as="geometry">
            <mxPoint x="2361.1375" y="374.73799999999994" as="sourcePoint" />
            <mxPoint x="2360.87" y="397" as="targetPoint" />
          </mxGeometry>
        </mxCell>
        <mxCell id="fQuRERfI6EG6g70LbA9C-494" value="" style="endArrow=none;dashed=1;html=1;rounded=0;entryDx=0;entryDy=0;entryPerimeter=0;jumpSize=4;dashPattern=1 4;strokeWidth=1;targetPerimeterSpacing=0;endSize=6;jumpStyle=none;spacingBottom=0;" parent="1" edge="1">
          <mxGeometry width="50" height="50" relative="1" as="geometry">
            <mxPoint x="1764.5" y="148.93999999999997" as="sourcePoint" />
            <mxPoint x="1802.5" y="148.93999999999997" as="targetPoint" />
          </mxGeometry>
        </mxCell>
        <mxCell id="fQuRERfI6EG6g70LbA9C-496" value="" style="endArrow=classic;html=1;rounded=0;fillColor=#dae8fc;strokeColor=#6c8ebf;" parent="1" edge="1">
          <mxGeometry width="50" height="50" relative="1" as="geometry">
            <mxPoint x="1936" y="411" as="sourcePoint" />
            <mxPoint x="1816" y="376" as="targetPoint" />
            <Array as="points">
              <mxPoint x="1916" y="411" />
              <mxPoint x="1916" y="356" />
              <mxPoint x="1816" y="356" />
            </Array>
          </mxGeometry>
        </mxCell>
        <mxCell id="fQuRERfI6EG6g70LbA9C-499" value="" style="endArrow=none;html=1;rounded=0;" parent="1" edge="1">
          <mxGeometry width="50" height="50" relative="1" as="geometry">
            <mxPoint x="1681" y="46" as="sourcePoint" />
            <mxPoint x="2451" y="46" as="targetPoint" />
          </mxGeometry>
        </mxCell>
        <mxCell id="fQuRERfI6EG6g70LbA9C-500" value="" style="endArrow=none;html=1;rounded=0;" parent="1" edge="1">
          <mxGeometry width="50" height="50" relative="1" as="geometry">
            <mxPoint x="1681" y="536" as="sourcePoint" />
            <mxPoint x="2451" y="536" as="targetPoint" />
          </mxGeometry>
        </mxCell>
        <mxCell id="fQuRERfI6EG6g70LbA9C-501" value="" style="endArrow=none;html=1;rounded=0;" parent="1" edge="1">
          <mxGeometry width="50" height="50" relative="1" as="geometry">
            <mxPoint x="1681" y="536" as="sourcePoint" />
            <mxPoint x="1681" y="46" as="targetPoint" />
          </mxGeometry>
        </mxCell>
        <mxCell id="fQuRERfI6EG6g70LbA9C-502" value="" style="endArrow=none;html=1;rounded=0;" parent="1" edge="1">
          <mxGeometry width="50" height="50" relative="1" as="geometry">
            <mxPoint x="2451" y="536" as="sourcePoint" />
            <mxPoint x="2451" y="46" as="targetPoint" />
          </mxGeometry>
        </mxCell>
        <mxCell id="ZeOX1d5Bfyj7vWMzJ4u5-6" value="" style="rounded=0;whiteSpace=wrap;html=1;fontFamily=Helvetica;fontSize=12;fontColor=#000000;align=center;" vertex="1" parent="1">
          <mxGeometry x="1719.04" y="131" width="68.93" height="36" as="geometry" />
        </mxCell>
        <mxCell id="ZeOX1d5Bfyj7vWMzJ4u5-7" value="&lt;font style=&quot;font-size: 10px;&quot;&gt;User Interface&lt;/font&gt;" style="text;html=1;align=center;verticalAlign=middle;whiteSpace=wrap;rounded=0;" vertex="1" parent="1">
          <mxGeometry x="1713.5" y="146" width="80" as="geometry" />
        </mxCell>
        <mxCell id="ZeOX1d5Bfyj7vWMzJ4u5-8" value="" style="rounded=0;whiteSpace=wrap;html=1;fontFamily=Helvetica;fontSize=12;fontColor=#000000;align=center;" vertex="1" parent="1">
          <mxGeometry x="1802.5" y="131" width="76" height="36" as="geometry" />
        </mxCell>
        <mxCell id="ZeOX1d5Bfyj7vWMzJ4u5-9" value="&lt;font style=&quot;font-size: 10px;&quot;&gt;Authentication&lt;/font&gt;" style="text;html=1;align=center;verticalAlign=middle;whiteSpace=wrap;rounded=0;" vertex="1" parent="1">
          <mxGeometry x="1802" y="131" width="77" height="30" as="geometry" />
        </mxCell>
        <mxCell id="ZeOX1d5Bfyj7vWMzJ4u5-17" value="" style="rounded=0;whiteSpace=wrap;html=1;fontFamily=Helvetica;fontSize=12;fontColor=#000000;align=center;" vertex="1" parent="1">
          <mxGeometry x="2190" y="131" width="68.34" height="36" as="geometry" />
        </mxCell>
        <mxCell id="ZeOX1d5Bfyj7vWMzJ4u5-18" value="&lt;font style=&quot;font-size: 10px;&quot;&gt;Notifications&lt;/font&gt;" style="text;html=1;align=center;verticalAlign=middle;whiteSpace=wrap;rounded=0;" vertex="1" parent="1">
          <mxGeometry x="2190.3399999999997" y="132" width="67.67" height="30" as="geometry" />
        </mxCell>
        <mxCell id="ZeOX1d5Bfyj7vWMzJ4u5-25" value="" style="rounded=0;whiteSpace=wrap;html=1;fontFamily=Helvetica;fontSize=12;fontColor=#000000;align=center;" vertex="1" parent="1">
          <mxGeometry x="1739" y="267" width="120" height="50" as="geometry" />
        </mxCell>
        <mxCell id="ZeOX1d5Bfyj7vWMzJ4u5-26" value="&lt;font style=&quot;font-size: 10px;&quot;&gt;Custom Dataset&lt;br&gt;&lt;/font&gt;&lt;div&gt;&lt;font style=&quot;font-size: 10px;&quot;&gt;Training &amp;amp;&lt;br&gt;Fine-Tuning&lt;/font&gt;&lt;/div&gt;" style="text;html=1;align=center;verticalAlign=middle;whiteSpace=wrap;rounded=0;" vertex="1" parent="1">
          <mxGeometry x="1737.84" y="268" width="120.32" height="47" as="geometry" />
        </mxCell>
        <mxCell id="ZeOX1d5Bfyj7vWMzJ4u5-29" value="" style="rounded=0;whiteSpace=wrap;html=1;fontFamily=Helvetica;fontSize=12;fontColor=#000000;align=center;" vertex="1" parent="1">
          <mxGeometry x="1752.54" y="409.37" width="57.46" height="44" as="geometry" />
        </mxCell>
        <mxCell id="ZeOX1d5Bfyj7vWMzJ4u5-32" value="" style="rounded=0;whiteSpace=wrap;html=1;fontFamily=Helvetica;fontSize=12;fontColor=#000000;align=center;" vertex="1" parent="1">
          <mxGeometry x="1823" y="409.37" width="56" height="44" as="geometry" />
        </mxCell>
        <mxCell id="ZeOX1d5Bfyj7vWMzJ4u5-33" value="&lt;font style=&quot;font-size: 10px;&quot;&gt;Docker&amp;nbsp;&lt;/font&gt;&lt;div&gt;&lt;font style=&quot;font-size: 10px;&quot;&gt;Containers&lt;/font&gt;&lt;/div&gt;" style="text;html=1;align=center;verticalAlign=middle;whiteSpace=wrap;rounded=0;" vertex="1" parent="1">
          <mxGeometry x="1821" y="409.37" width="60" height="40" as="geometry" />
        </mxCell>
        <mxCell id="ZeOX1d5Bfyj7vWMzJ4u5-35" value="" style="rounded=0;whiteSpace=wrap;html=1;fontFamily=Helvetica;fontSize=12;fontColor=#000000;align=center;" vertex="1" parent="1">
          <mxGeometry x="1775.03" y="466" width="81" height="44" as="geometry" />
        </mxCell>
        <mxCell id="ZeOX1d5Bfyj7vWMzJ4u5-36" value="&lt;font style=&quot;font-size: 10px;&quot;&gt;Expo SDK&lt;/font&gt;&lt;div&gt;&lt;font style=&quot;font-size: 10px;&quot;&gt;Mobile Deployment&lt;/font&gt;&lt;/div&gt;" style="text;html=1;align=center;verticalAlign=middle;whiteSpace=wrap;rounded=0;" vertex="1" parent="1">
          <mxGeometry x="1752.54" y="411.37" width="57.46" height="40" as="geometry" />
        </mxCell>
        <mxCell id="ZeOX1d5Bfyj7vWMzJ4u5-38" value="" style="rounded=0;whiteSpace=wrap;html=1;fontFamily=Helvetica;fontSize=12;fontColor=#000000;align=center;" vertex="1" parent="1">
          <mxGeometry x="1947.43" y="413.18" width="82.02" height="56.37" as="geometry" />
        </mxCell>
        <mxCell id="ZeOX1d5Bfyj7vWMzJ4u5-39" value="&lt;font style=&quot;font-size: 10px;&quot;&gt;User Profiles &amp;amp; Authentication Tokens&lt;/font&gt;" style="text;html=1;align=center;verticalAlign=middle;whiteSpace=wrap;rounded=0;" vertex="1" parent="1">
          <mxGeometry x="1947.72" y="412" width="81.73" height="58" as="geometry" />
        </mxCell>
        <mxCell id="ZeOX1d5Bfyj7vWMzJ4u5-41" value="" style="rounded=0;whiteSpace=wrap;html=1;fontFamily=Helvetica;fontSize=12;fontColor=#000000;align=center;" vertex="1" parent="1">
          <mxGeometry x="2044.71" y="412.96" width="82.57" height="56.82" as="geometry" />
        </mxCell>
        <mxCell id="ZeOX1d5Bfyj7vWMzJ4u5-42" value="&lt;font style=&quot;font-size: 10px;&quot;&gt;Contract Data &amp;amp; Transformations&lt;/font&gt;" style="text;html=1;align=center;verticalAlign=middle;whiteSpace=wrap;rounded=0;" vertex="1" parent="1">
          <mxGeometry x="2055.83" y="426.3699999999999" width="60.35" height="30" as="geometry" />
        </mxCell>
        <mxCell id="ZeOX1d5Bfyj7vWMzJ4u5-44" value="" style="rounded=0;whiteSpace=wrap;html=1;fontFamily=Helvetica;fontSize=12;fontColor=#000000;align=center;" vertex="1" parent="1">
          <mxGeometry x="2141.32" y="413.18" width="85.29" height="56.82" as="geometry" />
        </mxCell>
        <mxCell id="ZeOX1d5Bfyj7vWMzJ4u5-45" value="&lt;font style=&quot;font-size: 10px;&quot;&gt;Notifications Tokens&lt;/font&gt;" style="text;html=1;align=center;verticalAlign=middle;whiteSpace=wrap;rounded=0;" vertex="1" parent="1">
          <mxGeometry x="2153.79" y="426.3699999999999" width="60.35" height="30" as="geometry" />
        </mxCell>
        <mxCell id="ZeOX1d5Bfyj7vWMzJ4u5-46" value="" style="rounded=0;whiteSpace=wrap;html=1;fontFamily=Helvetica;fontSize=12;fontColor=#000000;align=center;" vertex="1" parent="1">
          <mxGeometry x="2302.75" y="337" width="116.5" height="39" as="geometry" />
        </mxCell>
        <mxCell id="ZeOX1d5Bfyj7vWMzJ4u5-47" value="&lt;font style=&quot;font-size: 10px;&quot;&gt;Continuous Integration &amp;amp; Automated Tests&lt;/font&gt;" style="text;html=1;align=center;verticalAlign=middle;whiteSpace=wrap;rounded=0;" vertex="1" parent="1">
          <mxGeometry x="2302.62" y="336.5" width="118.25" height="40" as="geometry" />
        </mxCell>
        <mxCell id="ZeOX1d5Bfyj7vWMzJ4u5-48" value="" style="rounded=0;whiteSpace=wrap;html=1;fontFamily=Helvetica;fontSize=12;fontColor=#000000;align=center;" vertex="1" parent="1">
          <mxGeometry x="2302.62" y="399.47" width="116.5" height="39" as="geometry" />
        </mxCell>
        <mxCell id="ZeOX1d5Bfyj7vWMzJ4u5-49" value="&lt;font style=&quot;font-size: 10px;&quot;&gt;Continuous Deployment&lt;/font&gt;&lt;div&gt;&lt;font style=&quot;font-size: 10px;&quot;&gt;&amp;amp; Automation&lt;/font&gt;&lt;/div&gt;" style="text;html=1;align=center;verticalAlign=middle;whiteSpace=wrap;rounded=0;" vertex="1" parent="1">
          <mxGeometry x="2303.06" y="399.47" width="117.38" height="37.06" as="geometry" />
        </mxCell>
        <mxCell id="ZeOX1d5Bfyj7vWMzJ4u5-54" value="" style="rounded=0;whiteSpace=wrap;html=1;fontFamily=Helvetica;fontSize=12;fontColor=#000000;align=center;" vertex="1" parent="1">
          <mxGeometry x="2109.65" y="131" width="68.34" height="36" as="geometry" />
        </mxCell>
        <mxCell id="ZeOX1d5Bfyj7vWMzJ4u5-55" value="&lt;font style=&quot;font-size: 10px;&quot;&gt;Forums&lt;/font&gt;" style="text;html=1;align=center;verticalAlign=middle;whiteSpace=wrap;rounded=0;" vertex="1" parent="1">
          <mxGeometry x="2107.9900000000002" y="133" width="70" height="28" as="geometry" />
        </mxCell>
        <mxCell id="ZeOX1d5Bfyj7vWMzJ4u5-56" value="" style="rounded=0;whiteSpace=wrap;html=1;fontFamily=Helvetica;fontSize=12;fontColor=#000000;align=center;" vertex="1" parent="1">
          <mxGeometry x="1946" y="131" width="68.34" height="36" as="geometry" />
        </mxCell>
        <mxCell id="ZeOX1d5Bfyj7vWMzJ4u5-58" value="&lt;font style=&quot;font-size: 10px;&quot;&gt;Accounts&lt;/font&gt;" style="text;html=1;align=center;verticalAlign=middle;whiteSpace=wrap;rounded=0;" vertex="1" parent="1">
          <mxGeometry x="1947.4299999999998" y="129" width="66.91" height="36" as="geometry" />
        </mxCell>
        <mxCell id="ZeOX1d5Bfyj7vWMzJ4u5-63" value="" style="rounded=0;whiteSpace=wrap;html=1;fontFamily=Helvetica;fontSize=12;fontColor=#000000;align=center;" vertex="1" parent="1">
          <mxGeometry x="2025.68" y="131" width="68.34" height="36" as="geometry" />
        </mxCell>
        <mxCell id="ZeOX1d5Bfyj7vWMzJ4u5-64" value="&lt;font style=&quot;font-size: 10px;&quot;&gt;Contracts&lt;/font&gt;" style="text;html=1;align=center;verticalAlign=middle;whiteSpace=wrap;rounded=0;" vertex="1" parent="1">
          <mxGeometry x="2040" y="133" width="40" height="30" as="geometry" />
        </mxCell>
        <mxCell id="ZeOX1d5Bfyj7vWMzJ4u5-65" value="" style="endArrow=none;dashed=1;html=1;rounded=0;jumpSize=4;dashPattern=1 4;strokeWidth=1;targetPerimeterSpacing=0;endSize=6;jumpStyle=none;spacingBottom=0;" edge="1" parent="1">
          <mxGeometry width="50" height="50" relative="1" as="geometry">
            <mxPoint x="2181.66" y="147.91" as="sourcePoint" />
            <mxPoint x="2191.66" y="147.91" as="targetPoint" />
          </mxGeometry>
        </mxCell>
        <mxCell id="ZeOX1d5Bfyj7vWMzJ4u5-70" value="" style="rounded=0;whiteSpace=wrap;html=1;fontFamily=Helvetica;fontSize=12;fontColor=#000000;align=center;" vertex="1" parent="1">
          <mxGeometry x="2025.6800000000003" y="183" width="68.34" height="36" as="geometry" />
        </mxCell>
        <mxCell id="ZeOX1d5Bfyj7vWMzJ4u5-71" value="&lt;font style=&quot;font-size: 10px;&quot;&gt;AI&amp;nbsp;&lt;/font&gt;&lt;div&gt;&lt;font style=&quot;font-size: 10px;&quot;&gt;Integration&lt;/font&gt;&lt;/div&gt;" style="text;html=1;align=center;verticalAlign=middle;whiteSpace=wrap;rounded=0;" vertex="1" parent="1">
          <mxGeometry x="2026.2" y="186.5" width="67.31" height="29" as="geometry" />
        </mxCell>
        <mxCell id="ZeOX1d5Bfyj7vWMzJ4u5-73" value="" style="rounded=0;whiteSpace=wrap;html=1;fontFamily=Helvetica;fontSize=12;fontColor=#000000;align=center;" vertex="1" parent="1">
          <mxGeometry x="2189.67" y="183" width="68.34" height="36" as="geometry" />
        </mxCell>
        <mxCell id="ZeOX1d5Bfyj7vWMzJ4u5-74" value="&lt;font style=&quot;&quot;&gt;&lt;font style=&quot;font-size: 10px;&quot;&gt;&amp;nbsp;Admin&amp;nbsp;&lt;/font&gt;&lt;/font&gt;&lt;div&gt;&lt;font style=&quot;&quot;&gt;&lt;font style=&quot;font-size: 10px;&quot;&gt;Panel&lt;/font&gt;&lt;br&gt;&lt;/font&gt;&lt;/div&gt;" style="text;html=1;align=center;verticalAlign=middle;whiteSpace=wrap;rounded=0;" vertex="1" parent="1">
          <mxGeometry x="2189.01" y="182" width="70.33" height="37" as="geometry" />
        </mxCell>
        <mxCell id="ZeOX1d5Bfyj7vWMzJ4u5-79" value="&lt;font style=&quot;font-size: 10px;&quot;&gt;Google Cloud&lt;/font&gt;&lt;div&gt;&lt;font style=&quot;font-size: 10px;&quot;&gt;Compute Engine&lt;/font&gt;&lt;/div&gt;" style="text;html=1;align=center;verticalAlign=middle;whiteSpace=wrap;rounded=0;" vertex="1" parent="1">
          <mxGeometry x="1775.1399999999999" y="468" width="81.73" height="40" as="geometry" />
        </mxCell>
        <mxCell id="ZeOX1d5Bfyj7vWMzJ4u5-83" value="" style="endArrow=classic;startArrow=classic;html=1;rounded=0;fillColor=#e1d5e7;strokeColor=#9673a6;" edge="1" parent="1">
          <mxGeometry width="50" height="50" relative="1" as="geometry">
            <mxPoint x="1887" y="242.94" as="sourcePoint" />
            <mxPoint x="1935" y="242.94" as="targetPoint" />
          </mxGeometry>
        </mxCell>
      </root>
    </mxGraphModel>
  </diagram>
</mxfile>
